# xmcd
#
# Track frame offsets: 
#        150
#        15629
#        32039
#        45803
#        60800
#        77196
#        89696
#        103449
#        119889
#        134959
#        151744
#        167536
#        184834
#
# Disc length: 2669 seconds
#
# Revision: 0
# Processed by: cddbd v1.5.2PL0 Copyright (c) Steve Scherf et al.
# Submitted via: ExactAudioCopy v0.99pb5
#
DISCID=ab0a6b0d
DTITLE=Maddie and Tae - Start here
DYEAR=2015
DGENRE=Country
TTITLE0=Waitin' on a Plane
TTITLE1=Girl in a Country Song
TTITLE2=Smoke
TTITLE3=Shut Up and Fish
TTITLE4=Fly
TTITLE5=Sierra
TTITLE6=Your Side of Town
TTITLE7=Right Here, Right Now
TTITLE8=No Place Like You
TTITLE9=After the Storm Blows Through
TTITLE10=Downside of Growing Up
TTITLE11=After the Storm Blows Through (Acoustic Version)
TTITLE12=Downside of Growing Up (Acoustic Version)
EXTD=
EXTT0=
EXTT1=
EXTT2=
EXTT3=
EXTT4=
EXTT5=
EXTT6=
EXTT7=
EXTT8=
EXTT9=
EXTT10=
EXTT11=
EXTT12=
PLAYORDER=
